<?xml version="1.0" encoding="UTF-8"?>
<!-- Created with Inkscape (http://www.inkscape.org/) -->
<svg width="210mm" height="297mm" version="1.1" viewBox="0 0 210 297" xmlns="http://www.w3.org/2000/svg">
 <path d="m67.208 231.97c-9.6358-5.9141-10.16-8.0549-10.188-41.578-.02727-33.106.75637-36.514 9.5996-41.747 5.9204-3.5039 17.584-3.6071 23.33-.20641 9.4654 5.602 10.299 8.5425 10.914 38.5.34217 16.67-.14922 29.837-1.2356 33.113-4.3471 13.106-20.694 19.115-32.42 11.919zm58.558 1.8983c-4.6477-1.7365-10.44-7.6211-12.622-12.824-.99605-2.3748-1.811-9.1042-1.811-14.954v-10.637h13.669c15.003 0 21.145 1.9639 26.934 8.612 4.0581 4.6601 4.7189 14.512 1.3737 20.484-4.6651 8.3276-18.064 12.861-27.544 9.3193zm-112.87-51.114c-7.4047-3.3844-12.348-11.695-11.435-19.223 1.5068-12.422 12.144-18.693 31.706-18.693h11.941v12.346c0 13.552-2.1742 19.1-9.5343 24.329-5.1592 3.6657-16.066 4.2625-22.678 1.2408zm110.14-.28812c-14.042-7.0388-14.208-25.914-.30027-34.156 3.8217-2.2648 9.3887-2.7891 34.177-3.219 34.977-.60648 39.216-.0547 46.997 6.1162 5.4862 4.351 5.9068 5.327 5.9068 13.704 0 7.7964-.67144 9.6989-4.9515 14.029l-4.9516 5.009-36.226.36767c-29.012.29445-37.107-.0742-40.652-1.8511zm-107.64-48.935c-13.244-5.475-18.178-18.624-10.712-28.549 6.5474-8.7036 8.9175-9.1775 46.03-9.2024 36.651-.0246 40.424.6832 46.218 8.671 3.8792 5.3477 3.9934 15.883.22851 21.073-6.2821 8.6602-9.2542 9.3126-44.328 9.7292-24.555.29167-33.57-.12294-37.438-1.7217zm112.27.53361c-6.9154-1.8926-12.662-7.2555-14.629-13.653-2.6499-8.6164-2.173-55.97.62333-61.898 5.7526-12.195 20.46-16.852 31.608-10.01 9.6358 5.914 10.16 8.0549 10.188 41.578.0264 32.543-.83161 36.558-8.8278 41.291-5.4017 3.197-13.117 4.2925-18.962 2.6926zm39.708-11.083c.01-19.877 7.5628-28.284 24.118-26.848 7.1365.6194 9.682 1.6681 13.557 5.5852 4.066 4.1104 4.7704 6.1356 4.7704 13.714 0 7.7019-.62469 9.4299-4.6695 12.915-6.5422 5.6374-12.428 7.2866-26.006 7.2866h-11.776l.006-12.654zm-99.568-40.903c-7.5458-4.1561-10.815-9.0624-10.786-16.188.05111-12.611 10.409-21.583 23.429-20.294 13.752 1.361 20.695 10.969 20.695 28.639v10.786l-14.009-.006c-10.794-.004-15.23-.67827-19.329-2.9361z" opacity=".67051" stroke-width="1.6138"/>
</svg>
